# File created by Blade
# Date/Time:  Fri Jan 16 19:41:12 2015
# Frame Rate: 120.000 fps
#------------------------------------------------------
:FULLY-SPECIFIED
:DEGREES
1475
root 18.385222 35.453325 -21.695787 9.816083 5.212405 -0.872741
Spine -22.211390 -2.803219 0.214307
Head 11.172346 -2.375502 0.641697
LeftShoulder -13.844023 -31.904552 21.847140
LeftArm -3.039761 0.003390 -7.727223
LeftForeArm 12.726841 -0.000000 -2.647699
LeftHand -5.001920 0.000000 -6.448216
LeftHandThumb1 -26.253704 0.000000 33.147579
RightShoulder -10.940164 -1.757393 -11.667282
RightArm 1.649422 35.757746 6.548183
RightForeArm -37.851876 -0.000000 5.781955
RightHand -7.288340 -0.000000 10.722776
RightHandThumb1 -24.326973 -0.000000 -32.862282
LeftUpLeg -0.412382 4.327548 1.989380
LeftLeg -6.682233 -0.000000 0.000000
LeftFoot -20.773379 26.412082 -14.050023
LeftToeBase 24.711663 -0.000000 -0.000000
RightUpLeg -0.416231 -10.524175 0.508326
RightLeg -4.046177 -0.000000 0.000000
RightFoot -23.129837 -28.886689 16.990900
RightToeBase 23.233680 -0.000000 -0.000000
1476
root 18.386236 35.453303 -21.695158 9.816826 5.216448 -0.871368
Spine -22.218136 -2.787531 0.212027
Head 11.166490 -2.350951 0.626540
LeftShoulder -13.856737 -31.894703 21.836641
LeftArm -3.052483 0.012439 -7.738295
LeftForeArm 12.724333 0.000000 -2.668726
LeftHand -4.973662 -0.000000 -6.429518
LeftHandThumb1 -26.253704 0.000000 33.147579
RightShoulder -10.935342 -1.780181 -11.671236
RightArm 1.645363 35.773138 6.561331
RightForeArm -37.854529 -0.000000 5.791802
RightHand -7.295842 -0.000000 10.742657
RightHandThumb1 -24.326973 -0.000000 -32.862282
LeftUpLeg -0.411844 4.310728 1.989809
LeftLeg -6.681054 -0.000000 0.000000
LeftFoot -20.766718 26.411705 -14.051023
LeftToeBase 24.676702 -0.000000 -0.000000
RightUpLeg -0.414662 -10.515625 0.508157
RightLeg -4.052294 -0.000000 0.000000
RightFoot -23.133364 -28.914191 16.998263
RightToeBase 23.244384 -0.000000 -0.000000
1477
root 18.388918 35.452786 -21.693693 9.806609 5.209246 -0.868135
Spine -22.209057 -2.761346 0.212537
Head 11.147998 -2.331782 0.596175
LeftShoulder -13.868972 -31.895754 21.820240
LeftArm -3.079237 -0.001497 -7.739281
LeftForeArm 12.790504 -0.000000 -2.673071
LeftHand -5.011258 0.000000 -6.398515
LeftHandThumb1 -26.253704 0.000000 33.147579
RightShoulder -10.928628 -1.754018 -11.688214
RightArm 1.629585 35.760904 6.565603
RightForeArm -37.856604 -0.000000 5.799959
RightHand -7.292848 -0.000000 10.747746
RightHandThumb1 -24.326973 -0.000000 -32.862282
LeftUpLeg -0.394105 4.316033 1.982229
LeftLeg -6.686923 -0.000000 0.000000
LeftFoot -20.774755 26.409047 -14.039138
LeftToeBase 24.707324 -0.000000 -0.000000
RightUpLeg -0.404561 -10.515610 0.498426
RightLeg -4.049505 -0.000000 0.000000
RightFoot -23.134959 -28.915497 16.992938
RightToeBase 23.228974 -0.000000 -0.000000
1478
root 18.389744 35.452849 -21.692910 9.806749 5.200043 -0.868818
Spine -22.212729 -2.736444 0.211335
Head 11.135883 -2.328546 0.571695
LeftShoulder -13.889493 -31.878297 21.805708
LeftArm -3.084616 -0.026581 -7.737189
LeftForeArm 12.843699 -0.000000 -2.685178
LeftHand -4.996245 -0.000000 -6.425689
LeftHandThumb1 -26.253704 0.000000 33.147579
RightShoulder -10.925044 -1.776748 -11.690752
RightArm 1.632290 35.814632 6.585982
RightForeArm -37.856101 -0.000000 5.790958
RightHand -7.280874 -0.000000 10.698541
RightHandThumb1 -24.326973 -0.000000 -32.862282
LeftUpLeg -0.391272 4.316432 1.981725
LeftLeg -6.687687 -0.000000 0.000000
LeftFoot -20.774130 26.413092 -14.039823
LeftToeBase 24.730967 -0.000000 -0.000000
RightUpLeg -0.404950 -10.512250 0.496914
RightLeg -4.048356 -0.000000 0.000000
RightFoot -23.126776 -28.903313 16.988834
RightToeBase 23.219359 -0.000000 -0.000000
1479
root 18.391126 35.453010 -21.691364 9.804527 5.196251 -0.873222
Spine -22.216725 -2.714366 0.218970
Head 11.123080 -2.303967 0.547786
LeftShoulder -13.891999 -31.904128 21.793274
LeftArm -3.137805 -0.030127 -7.725103
LeftForeArm 12.894216 -0.000000 -2.680372
LeftHand -4.883570 -0.000000 -6.489950
LeftHandThumb1 -26.253704 0.000000 33.147579
RightShoulder -10.919356 -1.763431 -11.698683
RightArm 1.622606 35.821330 6.589438
RightForeArm -37.840742 0.000000 5.794589
RightHand -7.275494 0.000000 10.711945
RightHandThumb1 -24.326973 -0.000000 -32.862282
LeftUpLeg -0.382725 4.314593 1.983572
LeftLeg -6.694803 -0.000000 0.000000
LeftFoot -20.773150 26.426611 -14.036056
LeftToeBase 24.734990 -0.000000 -0.000000
RightUpLeg -0.401116 -10.520212 0.498491
RightLeg -4.044056 -0.000000 0.000000
RightFoot -23.127786 -28.893006 16.987099
RightToeBase 23.234625 -0.000000 -0.000000
1480
root 18.392450 35.452798 -21.691962 9.805560 5.204439 -0.869762
Spine -22.214922 -2.709913 0.222744
Head 11.097055 -2.282505 0.528562
LeftShoulder -13.916555 -31.885771 21.776414
LeftArm -3.142703 -0.066231 -7.724914
LeftForeArm 12.835354 -0.000000 -2.697336
LeftHand -4.858896 -0.000000 -6.472332
LeftHandThumb1 -26.253704 0.000000 33.147579
RightShoulder -10.913009 -1.761099 -11.701281
RightArm 1.622592 35.853823 6.599945
RightForeArm -37.842292 0.000000 5.802013
RightHand -7.228901 -0.000000 10.759484
RightHandThumb1 -24.326973 -0.000000 -32.862282
LeftUpLeg -0.390382 4.289384 1.981709
LeftLeg -6.683177 -0.000000 0.000000
LeftFoot -20.784893 26.430131 -14.043755
LeftToeBase 24.699581 -0.000000 -0.000000
RightUpLeg -0.400645 -10.503887 0.493521
RightLeg -4.049841 -0.000000 0.000000
RightFoot -23.129468 -28.930721 16.979401
RightToeBase 23.258300 -0.000000 -0.000000
1481
root 18.394430 35.452626 -21.688515 9.802115 5.170373 -0.864927
Spine -22.224656 -2.659141 0.206802
Head 11.097427 -2.285030 0.513204
LeftShoulder -13.940936 -31.846538 21.787504
LeftArm -3.123802 -0.318267 -7.743198
LeftForeArm 12.992776 -0.000000 -2.766810
LeftHand -4.955873 -0.000000 -6.408115
LeftHandThumb1 -26.253704 0.000000 33.147579
RightShoulder -10.919245 -1.778863 -11.690620
RightArm 1.636122 35.871430 6.604788
RightForeArm -37.806823 -0.000000 5.799763
RightHand -7.338596 -0.000000 10.686213
RightHandThumb1 -24.326973 -0.000000 -32.862282
LeftUpLeg -0.364496 4.332576 1.969174
LeftLeg -6.704218 -0.000000 0.000000
LeftFoot -20.773416 26.411949 -14.050120
LeftToeBase 24.667318 -0.000000 -0.000000
RightUpLeg -0.391435 -10.475150 0.480677
RightLeg -4.057031 -0.000000 0.000000
RightFoot -23.124850 -28.929230 16.982207
RightToeBase 23.222223 -0.000000 -0.000000
1482
root 18.398246 35.453928 -21.689281 9.842358 5.140662 -0.857057
Spine -22.281499 -2.608191 0.198880
Head 11.098503 -2.259427 0.505620
LeftShoulder -13.942805 -31.875682 21.786165
LeftArm -3.173284 -0.261774 -7.752514
LeftForeArm 12.952702 -0.000000 -2.756356
LeftHand -5.008956 -0.000000 -6.398933
LeftHandThumb1 -26.253704 0.000000 33.147579
RightShoulder -10.916512 -1.791724 -11.694061
RightArm 1.633518 35.866348 6.606136
RightForeArm -37.747363 0.000000 5.796111
RightHand -7.352620 -0.000000 10.775928
RightHandThumb1 -24.326973 -0.000000 -32.862282
LeftUpLeg -0.398101 4.351486 1.946207
LeftLeg -6.710768 -0.000000 0.000000
LeftFoot -20.773098 26.426670 -14.083908
LeftToeBase 24.682302 -0.000000 -0.000000
RightUpLeg -0.443326 -10.449300 0.469423
RightLeg -4.041214 -0.000000 0.000000
RightFoot -23.126364 -28.928683 16.992744
RightToeBase 23.222526 -0.000000 -0.000000
1483
root 18.399890 35.453576 -21.688318 9.842310 5.131098 -0.853642
Spine -22.285202 -2.585635 0.198255
Head 11.084322 -2.258662 0.477177
LeftShoulder -13.967845 -31.847710 21.766438
LeftArm -3.163205 -0.317526 -7.738441
LeftForeArm 12.994827 -0.000000 -2.793601
LeftHand -4.934729 0.000000 -6.485120
LeftHandThumb1 -26.253704 0.000000 33.147579
RightShoulder -10.907483 -1.798979 -11.703429
RightArm 1.643308 35.863922 6.628052
RightForeArm -37.769691 -0.000000 5.779664
RightHand -7.331847 -0.000000 10.751873
RightHandThumb1 -24.326973 -0.000000 -32.862282
LeftUpLeg -0.392851 4.349806 1.939680
LeftLeg -6.711896 -0.000000 0.000000
LeftFoot -20.786084 26.427132 -14.092393
LeftToeBase 24.680052 -0.000000 -0.000000
RightUpLeg -0.441434 -10.441074 0.462493
RightLeg -4.043159 -0.000000 0.000000
RightFoot -23.126998 -28.930409 16.983244
RightToeBase 23.246976 -0.000000 -0.000000
1484
root 18.401346 35.453233 -21.687709 9.848389 5.120733 -0.848560
Spine -22.294288 -2.563457 0.189312
Head 11.065820 -2.245596 0.476062
LeftShoulder -13.972614 -31.873865 21.770911
LeftArm -3.217218 -0.301399 -7.725439
LeftForeArm 13.044182 -0.000000 -2.786868
LeftHand -4.931161 0.000000 -6.512491
LeftHandThumb1 -26.253704 0.000000 33.147579
RightShoulder -10.894628 -1.802092 -11.703057
RightArm 1.630264 35.870608 6.626988
RightForeArm -37.761924 -0.000000 5.765920
RightHand -7.265465 -0.000000 10.769967
RightHandThumb1 -24.326973 -0.000000 -32.862282
LeftUpLeg -0.396286 4.359875 1.930674
LeftLeg -6.710340 -0.000000 0.000000
LeftFoot -20.779784 26.422162 -14.095636
LeftToeBase 24.670875 -0.000000 -0.000000
RightUpLeg -0.445488 -10.428414 0.454722
RightLeg -4.045385 -0.000000 0.000000
RightFoot -23.127950 -28.936257 16.981558
RightToeBase 23.213543 -0.000000 -0.000000
1485
root 18.402683 35.452771 -21.686497 9.850931 5.118068 -0.844428
Spine -22.295172 -2.550623 0.184630
Head 11.038368 -2.240021 0.471746
LeftShoulder -14.008261 -31.871582 21.782039
LeftArm -3.220159 -0.314743 -7.729346
LeftForeArm 13.017371 -0.000000 -2.812248
LeftHand -4.903039 -0.000000 -6.532630
LeftHandThumb1 -26.253704 0.000000 33.147579
RightShoulder -10.886557 -1.698687 -11.738350
RightArm 1.611781 35.748742 6.645147
RightForeArm -37.742418 -0.000000 5.764643
RightHand -7.274735 -0.000000 10.834509
RightHandThumb1 -24.326973 -0.000000 -32.862282
LeftUpLeg -0.395555 4.355014 1.924073
LeftLeg -6.711423 -0.000000 0.000000
LeftFoot -20.779754 26.433601 -14.094054
LeftToeBase 24.665051 -0.000000 -0.000000
RightUpLeg -0.444309 -10.433077 0.448941
RightLeg -4.050865 -0.000000 0.000000
RightFoot -23.126281 -28.939591 16.962981
RightToeBase 23.249610 -0.000000 -0.000000
1486
root 18.403911 35.452588 -21.685183 9.848470 5.118871 -0.844075
Spine -22.295340 -2.538165 0.186762
Head 11.021522 -2.222151 0.469423
LeftShoulder -14.022593 -31.878887 21.785883
LeftArm -3.257930 -0.269580 -7.734822
LeftForeArm 12.932861 -0.000000 -2.803317
LeftHand -4.903895 -0.000000 -6.599440
LeftHandThumb1 -26.253704 0.000000 33.147579
RightShoulder -10.872065 -1.698382 -11.744263
RightArm 1.596702 35.753335 6.645878
RightForeArm -37.764763 -0.000000 5.757071
RightHand -7.235655 0.000000 10.785277
RightHandThumb1 -24.326973 -0.000000 -32.862282
LeftUpLeg -0.394619 4.371163 1.921683
LeftLeg -6.704053 -0.000000 0.000000
LeftFoot -20.790301 26.408837 -14.098610
LeftToeBase 24.663455 -0.000000 -0.000000
RightUpLeg -0.434793 -10.427779 0.444567
RightLeg -4.058018 -0.000000 0.000000
RightFoot -23.119964 -28.947404 16.959253
RightToeBase 23.239260 -0.000000 -0.000000
